<svg width="594" height="135" viewBox="0 0 594 135" fill="none" xmlns="http://www.w3.org/2000/svg">
<g opacity="0.5">
<path d="M251.349 78.8401L234.9 100.321V78.8401H217.62V28.0801H286.74V78.8401H251.349Z" fill="#CCEAFF"/>
<path d="M221.4 50.7606V22.1406H237.06M275.94 71.8206H255.95L238.68 92.9454V71.8206H221.4V62.6406M250.02 22.1406H291.6V71.8206H284.58" stroke="#1060E1" stroke-miterlimit="10"/>
<path d="M240.301 44.054V51.938L249.114 59.8112L266.221 44.4644V35.9648L249.114 51.4196L240.301 44.054Z" fill="white"/>
<path d="M404.31 82.0799L394.276 94.4135L393.996 82.0799H388.261V52.9199H436.861V82.0799H404.31Z" fill="#FFB935"/>
<path d="M409.861 50.2207H434.161V59.4007M434.161 66.9607V79.3807H401.782L392.041 91.7143V79.3807H385.561V50.2207H397.981" stroke="#F48024" stroke-miterlimit="10"/>
<path d="M407.7 63.7207H413.1V69.1207H407.7V63.7207ZM396.9 63.7207H402.3V69.1207H396.9V63.7207ZM418.5 63.7207H423.9V69.1207H418.5V63.7207Z" fill="white"/>
<path d="M194.67 72.3601L200.243 79.6717L200.394 72.3601H203.58V55.0801H176.58V72.3601H194.67Z" fill="#FFB935"/>
<path d="M184.14 70.7409H195.729L201.96 77.9985V70.7409H206.28V63.7209M184.14 53.4609H178.2V70.2009M206.28 57.2409V53.4609H189.54" stroke="#F48024" stroke-miterlimit="10"/>
<path d="M192.78 64.8008H189.54V61.5608H192.78V64.8008Z" fill="white"/>
<path d="M199.261 64.8008H196.021V61.5608H199.261V64.8008Z" fill="white"/>
<path d="M186.301 64.8008H183.061V61.5608H186.301V64.8008Z" fill="white"/>
<path d="M525.906 83.1604L542.7 104.642V83.1604H559.98V32.4004H489.78V83.1604H525.906Z" fill="#FFB935"/>
<path d="M556.2 55.0809V26.4609H540.54M501.66 76.1409H521.651L538.92 97.2657V76.1409H556.2V66.9609M527.58 26.4609H486V76.1409H493.02" stroke="#F48024" stroke-miterlimit="10"/>
<path d="M508.141 48.2865V56.1597L516.953 64.0437L534.061 48.6969V40.1973L516.953 55.6413L508.141 48.2865Z" fill="white"/>
<path d="M576.181 37.2608H573.87L569.161 43.568V37.2608H565.921V24.3008H570.781M588.601 32.4008V38.3408H580.501M576.181 24.3008H588.601V28.0808M576.721 30.7808H578.881V32.9408H576.721V30.7808Z" stroke="#1060E1" stroke-miterlimit="10"/>
<path d="M302.4 32.4002V17.8202H310.5M329.94 42.6602H319.68L311.04 53.4602V42.6602H302.4V37.8002M316.98 16.7402H338.04V42.6602H334.26M571.32 30.7802H573.48V32.9402H571.32V30.7802ZM582.12 30.7802H584.28V32.9402H582.12V30.7802Z" stroke="#1060E1" stroke-miterlimit="10"/>
<path d="M312.12 28.6427V32.5847L316.527 36.5267L325.08 28.8479V24.6035L316.527 32.3255L312.12 28.6427Z" stroke="#1060E1" stroke-miterlimit="10"/>
<path d="M134.46 29.7004H135.983L139.32 34.2688V29.7004H141.48V18.9004H138.78M124.2 24.8404V29.7004H131.22M134.46 18.9004H124.2V22.6804" stroke="#F48024" stroke-miterlimit="10"/>
<path d="M133.921 25.3809H131.761V23.2209H133.921V25.3809Z" stroke="#F48024" stroke-miterlimit="10"/>
<path d="M138.24 25.3809H136.08V23.2209H138.24V25.3809Z" stroke="#F48024" stroke-miterlimit="10"/>
<path d="M129.601 25.3809H127.441V23.2209H129.601V25.3809Z" stroke="#F48024" stroke-miterlimit="10"/>
<path d="M203.58 84.445C203.58 84.445 208.646 104.868 233.28 102.027M141.48 35.2834C141.48 35.2834 164.852 33.1234 177.12 51.4834M292.81 74.725C318.644 108.464 352.437 112.719 390.701 95.569M434.16 46.9798C434.895 40.1974 455.253 14.4394 483.041 24.2998M543.726 106.121C549.396 106.229 584.55 94.4134 568.664 46.9798M294.128 71.8198C294.128 71.8198 305.478 71.8198 310.5 56.8294" stroke="#BBC0C4" stroke-miterlimit="10" stroke-dasharray="5 5"/>
<path d="M104.998 86.0443C120.474 83.4631 150.909 82.6099 165.338 99.7063C179.766 116.803 228.96 122.311 234.987 102.946" stroke="#BBC0C4" stroke-miterlimit="10" stroke-dasharray="5 5"/>
</g>
<path d="M63.8824 91.3676V90.2444M77.3284 91.5944V95.6228M57.6616 89.1104L53.3848 88.5272L56.5816 65.1992L86.1412 69.2492L82.9444 92.5772L61.2904 89.6072" stroke="#1060E1" stroke-miterlimit="10"/>
<path d="M71.9279 85.438L71.7119 86.9932M75.0383 85.8592L74.8223 87.4144M68.8175 85.006L68.6015 86.5612M65.7071 84.5848L65.4911 86.14M62.5967 84.1636L62.3807 85.7188M54.2375 82.306L51.7427 81.9604C51.4569 81.9247 51.1812 81.8322 50.9317 81.6884C50.6822 81.5445 50.4639 81.3522 50.2899 81.1228C50.1158 80.8933 49.9893 80.6314 49.918 80.3524C49.8466 80.0734 49.8317 79.7829 49.8743 79.498L50.5547 74.5192C50.5889 74.2304 50.6811 73.9514 50.8257 73.6991C50.9704 73.4467 51.1645 73.2262 51.3965 73.0507C51.6285 72.8752 51.8935 72.7484 52.1757 72.6778C52.4579 72.6072 52.7514 72.5944 53.0387 72.64L55.5227 72.9748L54.2375 82.306ZM86.2703 86.6908L83.7971 86.3992L85.0715 77.068L87.5771 77.4136C87.8618 77.4494 88.1365 77.5416 88.3853 77.6848C88.634 77.828 88.8516 78.0193 89.0256 78.2475C89.1995 78.4757 89.3262 78.7363 89.3983 79.0141C89.4704 79.2919 89.4865 79.5812 89.4455 79.8652L88.7543 84.8548C88.7148 85.1399 88.6188 85.4141 88.4718 85.6615C88.3249 85.9089 88.13 86.1245 87.8986 86.2955C87.6672 86.4665 87.404 86.5896 87.1243 86.6575C86.8447 86.7254 86.5543 86.7367 86.2703 86.6908Z" stroke="#1060E1" stroke-miterlimit="10"/>
<path d="M74.9076 76.5741C75.14 74.8781 73.9199 73.3103 72.1825 73.0723C70.4451 72.8343 68.8483 74.0163 68.616 75.7123C68.3836 77.4083 69.6037 78.9761 71.3411 79.2141C73.0785 79.4521 74.6753 78.2702 74.9076 76.5741Z" stroke="#1060E1" stroke-miterlimit="10"/>
<path d="M64.4506 75.1386C64.6829 73.4426 63.4628 71.8747 61.7254 71.6367C59.988 71.3987 58.3913 72.5807 58.1589 74.2767C57.9266 75.9728 59.1467 77.5406 60.8841 77.7786C62.6215 78.0166 64.2183 76.8346 64.4506 75.1386Z" stroke="#1060E1" stroke-miterlimit="10"/>
<path d="M59.8538 114.436V122.493M78.6674 114.436V122.493M82.6958 103.69V105.029M71.9499 103.69V105.029M58.5146 103.01H66.5823V108.388H58.5146V103.01Z" stroke="#1060E1" stroke-miterlimit="10"/>
<path d="M88.0745 109.057V113.766H50.4473V94.9526H56.1497M62.0249 85.7402L59.8865 88.9802" stroke="#1060E1" stroke-miterlimit="10"/>
<path d="M67.2513 94.9544H88.0737V105.031M58.6545 97.8596C56.1273 96.1856 55.2309 93.0752 56.6565 90.9152L58.6005 87.9668L67.7697 94.0256L65.8797 96.9632C64.4001 99.134 61.1925 99.5336 58.6545 97.8596Z" stroke="#1060E1" stroke-miterlimit="10"/>
<path d="M95.3853 104.155L96.7677 99.6514C96.7607 99.0274 96.6308 98.4108 96.3854 97.837C96.1401 97.2631 95.7841 96.7433 95.3378 96.307C94.8915 95.8707 94.3637 95.5267 93.7844 95.2944C93.2051 95.0622 92.5858 94.9463 91.9617 94.9534H86.0541M85.6329 113.227L88.5273 109.512M89.3373 116.132L92.2425 112.417M59.7237 98.4418C59.1168 98.6504 58.4849 98.7775 57.8445 98.8198H50.2197M95.3853 104.576C97.7829 106.445 98.4201 109.62 96.8217 111.661L94.6617 114.437L86.0217 107.665L88.1817 104.889C89.7693 102.848 92.9985 102.708 95.3853 104.576Z" stroke="#1060E1" stroke-miterlimit="10"/>
<path d="M44.0859 49.9394L52.6827 60.7394L52.9311 49.9394H57.8451V24.4082H16.1787V49.9394H44.0859Z" fill="#FFB935"/>
<path d="M30.9635 46.58H46.8287L55.825 57.9524V46.58H62.5427V36.5036M28.2743 21.0488H19.5479V47.2496M61.2035 27.0968V21.0488H36.3419" stroke="#F48024" stroke-miterlimit="10"/>
<path d="M36.9035 36.5043C36.8699 35.6854 36.9946 34.8676 37.2707 34.0959C37.5745 33.4101 38.0328 32.8039 38.6099 32.3247C39.1246 31.9194 39.5791 31.443 39.9599 30.9099C40.1718 30.5617 40.2838 30.1619 40.2839 29.7543C40.2839 28.5447 39.7223 27.9291 38.5991 27.9291C38.3638 27.9182 38.1288 27.9568 37.9093 28.0424C37.6897 28.128 37.4906 28.2586 37.3247 28.4259C37.1573 28.6073 37.0273 28.8199 36.942 29.0515C36.8568 29.2832 36.818 29.5293 36.8279 29.7759H33.6959C33.6677 29.1717 33.7719 28.5686 34.0014 28.0089C34.2309 27.4492 34.58 26.9464 35.0243 26.5359C36.029 25.7153 37.3038 25.2993 38.5991 25.3695C39.8758 25.2825 41.1401 25.6668 42.1523 26.4495C42.581 26.8437 42.9167 27.3282 43.1352 27.868C43.3538 28.4078 43.4496 28.9894 43.4159 29.5707C43.4022 30.1825 43.243 30.7823 42.9515 31.3203C42.5753 31.9997 42.09 32.6126 41.5151 33.1347L40.6403 33.9663C40.1179 34.4509 39.7849 35.1055 39.7007 35.8131V36.4719L36.9035 36.5043ZM36.7199 39.7983C36.7175 39.5958 36.7575 39.3951 36.8375 39.2091C36.9175 39.023 37.0357 38.8558 37.1843 38.7183C37.5079 38.4328 37.9246 38.2753 38.3561 38.2753C38.7877 38.2753 39.2043 38.4328 39.5279 38.7183C39.6766 38.8558 39.7947 39.023 39.8747 39.2091C39.9547 39.3951 39.9948 39.5958 39.9923 39.7983C39.9975 40.0002 39.9598 40.2009 39.8816 40.3871C39.8034 40.5733 39.6865 40.7407 39.5387 40.8783C39.2077 41.1571 38.7889 41.3099 38.3561 41.3099C37.9234 41.3099 37.5046 41.1571 37.1735 40.8783C37.0257 40.7407 36.9089 40.5733 36.8307 40.3871C36.7525 40.2009 36.7147 40.0002 36.7199 39.7983Z" fill="white"/>
<path d="M81.3564 131.9V133.25M75.9779 131.9V133.25M62.5427 131.9V133.25M57.1643 131.9V133.25M85.3847 133.92H71.9496V129.373C71.9161 127.773 72.4347 126.21 73.4182 124.947C74.4016 123.684 75.7899 122.799 77.3496 122.439C78.3456 122.249 79.3717 122.284 80.3525 122.541C81.3333 122.799 82.244 123.273 83.0177 123.929C83.7914 124.585 84.4085 125.405 84.8237 126.33C85.2389 127.255 85.4417 128.262 85.4171 129.276L85.3847 133.92ZM66.5711 133.92H53.1359V129.373C53.1065 127.774 53.6267 126.213 54.6095 124.951C55.5923 123.689 56.9782 122.802 58.5359 122.439C59.532 122.249 60.5581 122.284 61.5389 122.541C62.5197 122.799 63.4304 123.273 64.2041 123.929C64.9778 124.585 65.5949 125.405 66.0101 126.33C66.4253 127.255 66.6281 128.262 66.6035 129.276L66.5711 133.92Z" stroke="#1060E1" stroke-miterlimit="10"/>
</svg>
